# xmcd
#
# Track frame offsets:
#	150
#	17379
#	33453
#	49441
#	66886
#	84384
#	101708
#	120091
#	139738
#
# Disc length: 2169 seconds
#
# Revision: 1
# Processed by: cddbd v1.5.2PL0 Copyright (c) Steve Scherf et al.
# Submitted via: EasyCDDAExtractor 12.0.0.1
#
DISCID=6e087709
DTITLE=Amanda Miguel - El Sonido Vol. 2
DYEAR=1982
DGENRE=Latin
TTITLE0=Como Un Titere
TTITLE1=Un Dia De Estos
TTITLE2=Poquito A Poquito
TTITLE3=Igual Que Un Avion
TTITLE4=A Mi Amiga
TTITLE5=Si O No
TTITLE6=Amanda Al Piano II (Tempestad)
TTITLE7=Castillos
TTITLE8=Cosquillas En El Pecho
EXTD=
EXTT0=
EXTT1=
EXTT2=
EXTT3=
EXTT4=
EXTT5=
EXTT6=
EXTT7=
EXTT8=
PLAYORDER=
